<mxfile host="app.diagrams.net" agent="Mozilla/5.0 (Macintosh; Intel Mac OS X 10_15_7) AppleWebKit/537.36 (KHTML, like Gecko) Chrome/134.0.0.0 Safari/537.36" version="26.1.1">
  <diagram name="Страница — 1" id="cpi80OK5ggxKdEkJf6Ek">
    <mxGraphModel dx="954" dy="639" grid="1" gridSize="10" guides="1" tooltips="1" connect="1" arrows="1" fold="1" page="1" pageScale="1" pageWidth="827" pageHeight="1169" math="0" shadow="0">
      <root>
        <mxCell id="0" />
        <mxCell id="1" parent="0" />
        <mxCell id="anivfigtLwiNKghZM0W1-9" style="edgeStyle=orthogonalEdgeStyle;rounded=0;orthogonalLoop=1;jettySize=auto;html=1;exitX=0.5;exitY=0.5;exitDx=0;exitDy=0;exitPerimeter=0;entryX=0;entryY=0.5;entryDx=0;entryDy=0;" edge="1" parent="1" source="anivfigtLwiNKghZM0W1-1" target="anivfigtLwiNKghZM0W1-4">
          <mxGeometry relative="1" as="geometry" />
        </mxCell>
        <mxCell id="anivfigtLwiNKghZM0W1-1" value="Пользователь" style="shape=umlActor;verticalLabelPosition=bottom;verticalAlign=top;html=1;outlineConnect=0;" vertex="1" parent="1">
          <mxGeometry x="90" y="255" width="40" height="90" as="geometry" />
        </mxCell>
        <mxCell id="anivfigtLwiNKghZM0W1-6" value="" style="edgeStyle=orthogonalEdgeStyle;rounded=0;orthogonalLoop=1;jettySize=auto;html=1;" edge="1" parent="1" source="anivfigtLwiNKghZM0W1-4" target="anivfigtLwiNKghZM0W1-5">
          <mxGeometry relative="1" as="geometry" />
        </mxCell>
        <mxCell id="anivfigtLwiNKghZM0W1-26" style="edgeStyle=orthogonalEdgeStyle;rounded=0;orthogonalLoop=1;jettySize=auto;html=1;entryX=0;entryY=0.5;entryDx=0;entryDy=0;exitX=0.5;exitY=1;exitDx=0;exitDy=0;startArrow=classic;startFill=1;" edge="1" parent="1" source="anivfigtLwiNKghZM0W1-4" target="anivfigtLwiNKghZM0W1-20">
          <mxGeometry relative="1" as="geometry">
            <mxPoint x="240" y="415" as="sourcePoint" />
            <mxPoint x="447.5" y="585" as="targetPoint" />
            <Array as="points">
              <mxPoint x="270" y="500" />
            </Array>
          </mxGeometry>
        </mxCell>
        <mxCell id="anivfigtLwiNKghZM0W1-28" value="" style="edgeStyle=orthogonalEdgeStyle;rounded=0;orthogonalLoop=1;jettySize=auto;html=1;" edge="1" parent="1" source="anivfigtLwiNKghZM0W1-4" target="anivfigtLwiNKghZM0W1-27">
          <mxGeometry relative="1" as="geometry" />
        </mxCell>
        <mxCell id="anivfigtLwiNKghZM0W1-4" value="Формирование заявки от пользователя" style="rounded=0;whiteSpace=wrap;html=1;" vertex="1" parent="1">
          <mxGeometry x="180" y="265" width="180" height="70" as="geometry" />
        </mxCell>
        <mxCell id="anivfigtLwiNKghZM0W1-23" style="edgeStyle=orthogonalEdgeStyle;rounded=0;orthogonalLoop=1;jettySize=auto;html=1;entryX=0.5;entryY=0;entryDx=0;entryDy=0;startArrow=classic;startFill=1;" edge="1" parent="1" source="anivfigtLwiNKghZM0W1-5" target="anivfigtLwiNKghZM0W1-20">
          <mxGeometry relative="1" as="geometry" />
        </mxCell>
        <mxCell id="anivfigtLwiNKghZM0W1-5" value="Учётный модуль" style="rounded=0;whiteSpace=wrap;html=1;" vertex="1" parent="1">
          <mxGeometry x="420" y="270" width="120" height="60" as="geometry" />
        </mxCell>
        <mxCell id="anivfigtLwiNKghZM0W1-16" style="edgeStyle=orthogonalEdgeStyle;rounded=0;orthogonalLoop=1;jettySize=auto;html=1;dashed=1;exitX=0.25;exitY=1;exitDx=0;exitDy=0;" edge="1" parent="1" source="anivfigtLwiNKghZM0W1-7">
          <mxGeometry relative="1" as="geometry">
            <mxPoint x="510" y="330" as="targetPoint" />
            <Array as="points">
              <mxPoint x="610" y="360" />
              <mxPoint x="510" y="360" />
            </Array>
          </mxGeometry>
        </mxCell>
        <mxCell id="anivfigtLwiNKghZM0W1-33" style="edgeStyle=orthogonalEdgeStyle;rounded=0;orthogonalLoop=1;jettySize=auto;html=1;entryX=0.75;entryY=0;entryDx=0;entryDy=0;" edge="1" parent="1" source="anivfigtLwiNKghZM0W1-7" target="anivfigtLwiNKghZM0W1-20">
          <mxGeometry relative="1" as="geometry">
            <Array as="points">
              <mxPoint x="643" y="380" />
            </Array>
          </mxGeometry>
        </mxCell>
        <mxCell id="anivfigtLwiNKghZM0W1-7" value="Модуль парсинга данных от поставщиков" style="whiteSpace=wrap;html=1;rounded=0;" vertex="1" parent="1">
          <mxGeometry x="570" y="230" width="120" height="60" as="geometry" />
        </mxCell>
        <mxCell id="anivfigtLwiNKghZM0W1-12" style="edgeStyle=orthogonalEdgeStyle;rounded=0;orthogonalLoop=1;jettySize=auto;html=1;dashed=1;" edge="1" parent="1" source="anivfigtLwiNKghZM0W1-11">
          <mxGeometry relative="1" as="geometry">
            <mxPoint x="470" y="270" as="targetPoint" />
            <Array as="points">
              <mxPoint x="470" y="270" />
            </Array>
          </mxGeometry>
        </mxCell>
        <mxCell id="anivfigtLwiNKghZM0W1-11" value="БД" style="shape=cylinder3;whiteSpace=wrap;html=1;boundedLbl=1;backgroundOutline=1;size=15;" vertex="1" parent="1">
          <mxGeometry x="420" y="60" width="120" height="60" as="geometry" />
        </mxCell>
        <mxCell id="anivfigtLwiNKghZM0W1-15" style="edgeStyle=orthogonalEdgeStyle;rounded=0;orthogonalLoop=1;jettySize=auto;html=1;dashed=1;" edge="1" parent="1" source="anivfigtLwiNKghZM0W1-5">
          <mxGeometry relative="1" as="geometry">
            <mxPoint x="490" y="120" as="targetPoint" />
            <Array as="points">
              <mxPoint x="490" y="121" />
            </Array>
          </mxGeometry>
        </mxCell>
        <mxCell id="anivfigtLwiNKghZM0W1-20" value="Модуль аналитики(подборка пресетов)" style="whiteSpace=wrap;html=1;rounded=0;" vertex="1" parent="1">
          <mxGeometry x="530" y="470" width="150" height="60" as="geometry" />
        </mxCell>
        <mxCell id="anivfigtLwiNKghZM0W1-29" style="edgeStyle=orthogonalEdgeStyle;rounded=0;orthogonalLoop=1;jettySize=auto;html=1;" edge="1" parent="1" source="anivfigtLwiNKghZM0W1-27" target="anivfigtLwiNKghZM0W1-1">
          <mxGeometry relative="1" as="geometry">
            <mxPoint x="40" y="220" as="targetPoint" />
            <Array as="points">
              <mxPoint x="40" y="150" />
              <mxPoint x="40" y="300" />
            </Array>
          </mxGeometry>
        </mxCell>
        <mxCell id="anivfigtLwiNKghZM0W1-27" value="Модуль информирования" style="whiteSpace=wrap;html=1;rounded=0;" vertex="1" parent="1">
          <mxGeometry x="210" y="130" width="120" height="60" as="geometry" />
        </mxCell>
      </root>
    </mxGraphModel>
  </diagram>
</mxfile>
